<svg xmlns="http://www.w3.org/2000/svg" width="35.413" height="35.401" viewBox="0 0 35.413 35.401">
  <path id="Trazado_2" data-name="Trazado 2" d="M32.158,3.071a10.822,10.822,0,0,0-14-1,11.334,11.334,0,0,0-4,6c-.185.691.15,1.4,0,2-.9,3.536-2.143,5.141-5,8l-1,1,2,2-3,3c-.663-.479-1.132-1-2-1-2.775,0-5.6,2.251-5,5a4.6,4.6,0,0,0,3,3,1.375,1.375,0,0,1,1,1,5.978,5.978,0,0,0,1,2,4.111,4.111,0,0,0,6,0c1.456-1.559,1.094-4.461,0-6l3-3,2,2,1-1c3.4-3.4,5.065-3.639,10-5,3.561-.978,7.05-3.4,8-7a11.948,11.948,0,0,0-3-11Zm-19,21-5,4,1,1c.533.41.966.61,1,1,.116,1.4-.647,3-2,3-.875,0-1.747-.248-2-1a5.582,5.582,0,0,0-3-3c-.629-.212-.856-.337-1-1-.171-.786.357-1.405,1-2a1.955,1.955,0,0,1,3,0l1,1,4-5C11.739,22.638,12.577,23.489,13.158,24.071Zm14-5c-4.771,1.313-7.411,1.56-11,5l-5-5c3.514-3.618,3.715-6.24,5-11a8.066,8.066,0,0,1,8-6c2.317,0,4.312,1.3,6,3C34.9,9.817,33.31,17.381,27.158,19.071Z" transform="translate(-0.076 0.029)" fill="#ffaa3a"/>
</svg>
