<svg xmlns="http://www.w3.org/2000/svg" width="35" height="35" viewBox="0 0 35 35">
  <path id="heart" d="M17.5,63a1.925,1.925,0,0,1-1.354-.569c-1.415-1.391-2.775-2.7-3.979-3.85l-.007-.008c-1.175-1.123-2.3-2.2-3.565-3.45a50.611,50.611,0,0,1-5.124-5.716A15.644,15.644,0,0,1,0,39.825a13.205,13.205,0,0,1,2.775-8.4,8.957,8.957,0,0,1,7-3.427,8.165,8.165,0,0,1,5.5,2.136,12.148,12.148,0,0,1,2.222,2.613,12.148,12.148,0,0,1,2.222-2.613A8.224,8.224,0,0,1,25.225,28a8.957,8.957,0,0,1,7,3.427A13.205,13.205,0,0,1,35,39.825a15.644,15.644,0,0,1-3.473,9.582,78.011,78.011,0,0,1-8.688,9.167c-1.2,1.153-2.57,2.459-3.985,3.857A1.925,1.925,0,0,1,17.5,63ZM9.775,30.305a7.028,7.028,0,0,0-5.489,2.682,10.747,10.747,0,0,0-2.235,6.839,13.15,13.15,0,0,0,3,8.114,76.773,76.773,0,0,0,8.442,8.883l.007.008c1.21,1.16,2.577,2.467,4,3.865,1.436-1.406,2.8-2.712,4.013-3.873a78,78,0,0,0,8.442-8.883,13.192,13.192,0,0,0,3-8.114,10.762,10.762,0,0,0-2.235-6.839,7.051,7.051,0,0,0-5.5-2.682,6.315,6.315,0,0,0-4.245,1.652,11,11,0,0,0-2.365,3.074,1.26,1.26,0,0,1-1.114.707,1.274,1.274,0,0,1-1.114-.707,10.892,10.892,0,0,0-2.365-3.074A6.315,6.315,0,0,0,9.775,30.305Z" transform="translate(0 -28)" fill="#ffaa3a"/>
</svg>
