<svg xmlns="http://www.w3.org/2000/svg" width="30" height="35" viewBox="0 0 30 35">
  <path id="user" d="M56.679,16.857A8.514,8.514,0,0,0,62.8,14.39a8.044,8.044,0,0,0,2.535-5.961A8.07,8.07,0,0,0,62.8,2.468a8.828,8.828,0,0,0-12.244,0,8.04,8.04,0,0,0-2.542,5.961A8.07,8.07,0,0,0,50.55,14.39,8.5,8.5,0,0,0,56.679,16.857ZM52.045,3.917a6.686,6.686,0,0,1,9.267,0,6.015,6.015,0,0,1,1.917,4.512,6.015,6.015,0,0,1-1.917,4.512,6.686,6.686,0,0,1-9.267,0,6.015,6.015,0,0,1-1.917-4.512A5.989,5.989,0,0,1,52.045,3.917Zm19.778,23a21.5,21.5,0,0,0-.288-2.215,17.222,17.222,0,0,0-.562-2.222,10.549,10.549,0,0,0-.941-2.071,7.91,7.91,0,0,0-1.418-1.8,6.344,6.344,0,0,0-2.036-1.244,7.262,7.262,0,0,0-2.6-.458,2.635,2.635,0,0,0-1.4.581c-.421.267-.913.574-1.467.923a8.365,8.365,0,0,1-1.9.813,7.589,7.589,0,0,1-4.634,0,8.365,8.365,0,0,1-1.9-.813c-.548-.342-1.039-.649-1.467-.923a2.655,2.655,0,0,0-1.4-.581,7.262,7.262,0,0,0-2.6.458,6.344,6.344,0,0,0-2.036,1.244,7.91,7.91,0,0,0-1.418,1.8,10.733,10.733,0,0,0-.941,2.071,17.22,17.22,0,0,0-.562,2.222,18.219,18.219,0,0,0-.288,2.215c-.049.67-.07,1.367-.07,2.064a5.717,5.717,0,0,0,1.776,4.4A6.484,6.484,0,0,0,48.247,35H65.553a6.511,6.511,0,0,0,4.571-1.62,5.717,5.717,0,0,0,1.776-4.4C71.9,28.273,71.872,27.583,71.823,26.913ZM68.67,31.89a4.362,4.362,0,0,1-3.117,1.06H48.247a4.385,4.385,0,0,1-3.117-1.06,3.741,3.741,0,0,1-1.116-2.912c0-.656.021-1.306.063-1.928a17.459,17.459,0,0,1,.267-1.989,14.662,14.662,0,0,1,.491-1.962A8.651,8.651,0,0,1,45.6,21.41a5.673,5.673,0,0,1,1.039-1.326,4.1,4.1,0,0,1,1.355-.82,5.086,5.086,0,0,1,1.657-.314c.077.041.2.109.421.246.435.273.934.588,1.481.93a10.823,10.823,0,0,0,2.38,1.039,9.719,9.719,0,0,0,5.94,0,10.371,10.371,0,0,0,2.38-1.039c.562-.349,1.053-.656,1.481-.93a4.848,4.848,0,0,1,.421-.246,4.879,4.879,0,0,1,1.657.314,4.248,4.248,0,0,1,1.355.82,5.819,5.819,0,0,1,1.039,1.326,9.086,9.086,0,0,1,.765,1.688,14.663,14.663,0,0,1,.491,1.962,19.194,19.194,0,0,1,.267,1.989h0c.042.622.07,1.265.07,1.921A3.779,3.779,0,0,1,68.67,31.89Z" transform="translate(-41.9 0)" fill="#ffaa3a"/>
</svg>
