<svg xmlns="http://www.w3.org/2000/svg" width="22" height="20" viewBox="0 0 22 20">
  <path id="Trazado_4" data-name="Trazado 4" d="M16.156,30A5.1,5.1,0,0,0,12.9,31.159,7.561,7.561,0,0,0,11,33.513a7.621,7.621,0,0,0-1.9-2.358A5.12,5.12,0,0,0,5.844,30C2.514,30,0,32.805,0,36.527,0,40.549,3.132,43.3,7.88,47.46c.808.708,1.719,1.509,2.668,2.363A.691.691,0,0,0,11,50a.669.669,0,0,0,.451-.177c.95-.854,1.861-1.655,2.668-2.363C18.868,43.3,22,40.549,22,36.527,22,32.805,19.486,30,16.156,30Z" transform="translate(0 -30)" fill="#ff4115"/>
</svg>
