<svg xmlns="http://www.w3.org/2000/svg" width="34" height="34.999" viewBox="0 0 34 34.999">
  <path id="phone-call2" d="M14.075,20.508a14.278,14.278,0,0,1-4.144-8.019,1.241,1.241,0,0,1,.332-1l2.623-2.7a1.237,1.237,0,0,0,.166-1.49L8.869.608A1.153,1.153,0,0,0,7.348.171L.648,3.418A1.194,1.194,0,0,0,0,4.614C.355,8.053,1.81,16.509,9.885,24.821s16.283,9.81,19.63,10.172a1.156,1.156,0,0,0,1.162-.663l3.161-6.911a1.22,1.22,0,0,0-.425-1.559l-6.494-4.3a1.141,1.141,0,0,0-1.448.171l-2.63,2.693a1.137,1.137,0,0,1-.976.342,13.522,13.522,0,0,1-7.789-4.259Zm12.889-1.8a1.191,1.191,0,0,1-1.175-1.21A8.935,8.935,0,0,0,17,8.449a1.21,1.21,0,0,1,0-2.42A11.314,11.314,0,0,1,28.133,17.493,1.191,1.191,0,0,1,26.964,18.71Zm5.857,0a1.191,1.191,0,0,1-1.175-1.21A14.883,14.883,0,0,0,17,2.413,1.191,1.191,0,0,1,15.821,1.2,1.185,1.185,0,0,1,17,0,17.28,17.28,0,0,1,34,17.5a1.229,1.229,0,0,1-.345.854A1.16,1.16,0,0,1,32.821,18.71Z" transform="translate(0.003)" fill="#332a2a"/>
</svg>
