<svg xmlns="http://www.w3.org/2000/svg" width="35" height="35" viewBox="0 0 35 35">
  <path id="Trazado_3" data-name="Trazado 3" d="M17.507,0H17.5A17.489,17.489,0,0,0,3.329,27.754l-2.181,6.5L7.875,32.1A17.321,17.321,0,0,0,17.507,35a17.5,17.5,0,0,0,0-35ZM27.686,24.712c-.424,1.189-2.1,2.181-3.432,2.468-.916.191-2.105.349-6.132-1.319-5.141-2.133-8.456-7.355-8.716-7.7a10.02,10.02,0,0,1-2.078-5.277A5.6,5.6,0,0,1,9.119,8.627,2.55,2.55,0,0,1,10.91,8c.219,0,.41.014.588.021.513.021.772.055,1.114.861.424,1.019,1.449,3.527,1.572,3.787a1.065,1.065,0,0,1,.075.95,2.942,2.942,0,0,1-.567.8c-.26.294-.506.526-.759.848-.239.28-.506.574-.205,1.087a15.609,15.609,0,0,0,2.837,3.527,12.835,12.835,0,0,0,4.1,2.529,1.1,1.1,0,0,0,1.23-.191,21.636,21.636,0,0,0,1.367-1.812.986.986,0,0,1,1.258-.383c.472.164,2.974,1.4,3.486,1.654s.854.383.978.595A4.378,4.378,0,0,1,27.686,24.712Z" fill="#332a2a"/>
</svg>
