<svg xmlns="http://www.w3.org/2000/svg" width="50" height="45" viewBox="0 0 50 45">
  <path id="menu-ico" d="M45.4,64.3H4.6C2.061,64.3,0,66.777,0,69.828s2.061,5.528,4.6,5.528H45.4c2.539,0,4.6-2.477,4.6-5.528S47.939,64.3,45.4,64.3Zm0,16.972H4.6C2.061,81.272,0,83.748,0,86.8s2.061,5.528,4.6,5.528H45.4c2.539,0,4.6-2.477,4.6-5.528s-2.061-5.528-4.6-5.528Zm0,16.972H4.6c-2.539,0-4.6,2.477-4.6,5.528S2.061,109.3,4.6,109.3H45.4c2.539,0,4.6-2.477,4.6-5.528S47.939,98.244,45.4,98.244Z" transform="translate(0 -64.3)" fill="#ffaa3a"/>
</svg>
