<svg xmlns="http://www.w3.org/2000/svg" width="35" height="34.999" viewBox="0 0 35 34.999">
  <path id="phone-call2" d="M14.489,20.508a14.118,14.118,0,0,1-4.266-8.019,1.219,1.219,0,0,1,.342-1l2.7-2.7a1.21,1.21,0,0,0,.171-1.49L9.13.608A1.206,1.206,0,0,0,7.564.171L.667,3.418A1.187,1.187,0,0,0,0,4.614C.366,8.053,1.863,16.509,10.175,24.821s16.762,9.81,20.207,10.172a1.2,1.2,0,0,0,1.2-.663l3.254-6.911A1.2,1.2,0,0,0,34.4,25.86l-6.686-4.3a1.2,1.2,0,0,0-1.49.171l-2.707,2.693a1.19,1.19,0,0,1-1,.342,14.067,14.067,0,0,1-8.019-4.259Zm13.268-1.8a1.208,1.208,0,0,1-1.21-1.21A9.061,9.061,0,0,0,17.5,8.449a1.21,1.21,0,1,1,0-2.42A11.474,11.474,0,0,1,28.961,17.493,1.208,1.208,0,0,1,27.757,18.71Zm6.029,0a1.208,1.208,0,0,1-1.21-1.21A15.093,15.093,0,0,0,17.5,2.413,1.207,1.207,0,1,1,17.5,0,17.525,17.525,0,0,1,35,17.5a1.214,1.214,0,0,1-1.21,1.21Z" transform="translate(0.003)" fill="#fcfbfb"/>
</svg>
